# xmcd
#
# Track frame offsets:
#	150
#	15358
#	31396
#	51008
#	65016
#	80386
#	100933
#	116635
#	134348
#	150875
#	165967
#	180350
#	194883
#	211073
#	226641
#	242377
#	260901
#	279594
#
# Disc length: 3966 seconds
#
# Revision: 1
# Processed by: cddbd v1.5.2PL0 Copyright (c) Steve Scherf et al.
# Submitted via: EasyCDDAExtractor 15.2.1.1
#
DISCID=e30f7c12
DTITLE=李克勤 - 精選到無朋友Disc II
DYEAR=2014
DGENRE=Pop
TTITLE0=花落誰家
TTITLE1=再見演奏廳
TTITLE2=天水、圍城
TTITLE3=我著十號
TTITLE4=情非首爾
TTITLE5=愛可以問誰(國)
TTITLE6=空中飛人
TTITLE7=六呎風雲
TTITLE8=嗱嗱聲 (左麟右李)
TTITLE9=我不會唱歌 (鋼琴演奏:郎朗)
TTITLE10=愛一個人 (陳慧琳合唱)
TTITLE11=合久必婚 (陳苑淇合唱)
TTITLE12=左鄰右里 (左麟右李)
TTITLE13=愛不釋手
TTITLE14=高妹
TTITLE15=Victory (feat. Bond)
TTITLE16=來到今天 (黃伊汶合唱)
TTITLE17=飛花
EXTD=
EXTT0=
EXTT1=
EXTT2=
EXTT3=
EXTT4=
EXTT5=
EXTT6=
EXTT7=
EXTT8=
EXTT9=
EXTT10=
EXTT11=
EXTT12=
EXTT13=
EXTT14=
EXTT15=
EXTT16=
EXTT17=
PLAYORDER=
